<svg xmlns="http://www.w3.org/2000/svg" viewBox="0 0 256 256" width="1000" height="1000" preserveAspectRatio="xMidYMid meet" display="block" role="img" aria-labelledby="title">
  <title id="title">DramaStudio logo</title>
  <path fill="#000000" fill-rule="evenodd" d="M52 22h138c11.05 0 20 8.95 20 20v14H39V35c0-7.18 5.82-13 13-13Zm25 0h25L88 56H63l14-34Zm56 0h25l-14 34h-25l14-34Zm56 0h1c11.05 0 20 8.95 20 20v14h-35l14-34Z"/>
  <path fill="#000000" fill-rule="evenodd" d="M36 68c0-12.15 9.85-22 22-22h77c53.1 0 89 34.87 89 82s-35.9 82-89 82H58c-12.15 0-22-9.85-22-22V68Zm32 13v94h67c35.35 0 56-18.38 56-47s-20.65-47-56-47H68Zm-18 12h9v15h-9V93Zm0 27h9v15h-9v-15Zm0 27h9v15h-9v-15Zm0 27h9v15h-9v-15Zm69-80 51 34-51 34V94Z"/>
  <path fill="#000000" d="M193 69c12.28 4.53 22.5 13.34 29 24.55l-21.17 12.06a53.58 53.58 0 0 0-17.24-16.07L193 69Z"/>
  <path fill="#000000" d="M201 150.38 222.25 162c-6.34 11.38-16.46 20.38-28.67 25.11l-9.74-20.39A53.15 53.15 0 0 0 201 150.38Z"/>
</svg>
